<svg width="235" height="121" fill="none" xmlns="http://www.w3.org/2000/svg"><mask id="a" style="mask-type:alpha" maskUnits="userSpaceOnUse" x="0" y="0" width="235" height="121"><path fill="#D9D9D9" d="M0 0h235v121H0z"/></mask><g mask="url(#a)"><path d="M231 125.5a113.5 113.5 0 00-227 0h227z" stroke="#52B788" stroke-width="3" stroke-linecap="round" stroke-linejoin="round" stroke-dasharray="6 6"/></g><path d="M40.164 107V94.39h1.783v9.728l7.459-9.728h1.657V107h-1.766v-9.71L41.822 107h-1.657zm23.874-12.61h1.801V107h-1.801V94.39zM56.796 107h-1.801V94.39h1.801V107zm7.404-5.621h-7.584v-1.567H64.2v1.567zM72.348 107V95.489l.45.468h-4.755V94.39h10.394v1.567h-4.756l.433-.468V107h-1.766zm9.918-7.17h6.485v1.531h-6.485v-1.53zm.162 5.603h7.35V107h-9.151V94.39h8.9v1.567h-7.099v9.476zM92.608 107V94.39h4.917c1.105 0 2.048.174 2.829.522.78.348 1.381.853 1.801 1.513.42.66.631 1.448.631 2.36 0 .913-.211 1.7-.631 2.36-.42.649-1.021 1.153-1.801 1.513-.781.349-1.724.523-2.829.523h-3.927l.81-.847V107h-1.8zm1.8-4.486l-.81-.9h3.873c1.153 0 2.024-.247 2.612-.739.601-.492.901-1.189.901-2.09 0-.9-.3-1.597-.901-2.09-.588-.492-1.459-.738-2.612-.738h-3.873l.81-.9v7.457zm8.503 4.486l5.71-12.61h1.784l5.729 12.61h-1.892l-5.098-11.602h.72L104.766 107h-1.855zm2.432-3.153l.486-1.441h7.098l.522 1.441h-8.106zM126.795 107l-4.576-6.215 1.459-.9 5.171 7.115h-2.054zm-8.485 0V94.39h1.765V107h-1.765zm1.225-5.549v-1.585h4.089v1.585h-4.089zm4.305-.558l-1.657-.252 4.522-6.251h1.927l-4.792 6.503zm9.308 6.107V95.489l.45.468h-4.756V94.39h10.395v1.567h-4.756l.432-.468V107h-1.765zm8.278 0V94.39h1.784v9.728l7.458-9.728h1.657V107h-1.765v-9.71l-7.476 9.71h-1.658zm14.831 0V94.39h5.422c1.369 0 2.444.276 3.225.828.781.553 1.171 1.358 1.171 2.414 0 1.033-.372 1.826-1.117 2.378-.745.541-1.723.811-2.936.811l.324-.54c1.405 0 2.48.282 3.225.846.756.553 1.134 1.363 1.134 2.432 0 1.081-.396 1.928-1.189 2.54-.78.601-1.945.901-3.494.901h-5.765zm1.783-1.423h3.946c.96 0 1.681-.174 2.161-.523.493-.36.739-.906.739-1.639s-.246-1.267-.739-1.603c-.48-.337-1.201-.505-2.161-.505h-3.946v4.27zm0-5.639h3.513c.877 0 1.543-.174 2-.522.468-.349.702-.859.702-1.531 0-.685-.234-1.201-.702-1.55-.457-.348-1.123-.522-2-.522h-3.513v4.125zm20.719-5.548h1.801V107h-1.801V94.39zM171.517 107h-1.802V94.39h1.802V107zm7.404-5.621h-7.585v-1.567h7.585v1.567zm11.246 5.765a7.31 7.31 0 01-2.684-.486 6.51 6.51 0 01-2.125-1.351 6.39 6.39 0 01-1.406-2.054 6.402 6.402 0 01-.504-2.558c0-.925.168-1.778.504-2.558.337-.78.805-1.46 1.406-2.036a6.343 6.343 0 012.125-1.369c.817-.324 1.712-.486 2.684-.486.961 0 1.844.162 2.649.486a6.12 6.12 0 012.125 1.351 5.846 5.846 0 011.406 2.036c.336.78.504 1.64.504 2.576 0 .937-.168 1.795-.504 2.576a6.032 6.032 0 01-1.406 2.054 6.51 6.51 0 01-2.125 1.351c-.805.312-1.688.468-2.649.468zm0-1.603c.697 0 1.34-.12 1.928-.36a4.562 4.562 0 002.576-2.559 4.843 4.843 0 00.378-1.927c0-.697-.126-1.34-.378-1.928a4.454 4.454 0 00-1.027-1.531 4.418 4.418 0 00-1.549-1.027 5.052 5.052 0 00-1.928-.36 5.24 5.24 0 00-1.963.36 4.648 4.648 0 00-1.549 1.027 4.677 4.677 0 00-1.045 1.531 5.057 5.057 0 00-.361 1.928c0 .696.121 1.339.361 1.927.252.589.6 1.105 1.045 1.55.444.432.96.768 1.549 1.009.6.24 1.255.36 1.963.36z" fill="#151724"/><path d="M131 79l-13-13-13 13" stroke="#151724" stroke-width="2.26" stroke-linecap="round" stroke-linejoin="round"/></svg>