<svg width="235" height="121" viewBox="0 0 235 121" fill="none" xmlns="http://www.w3.org/2000/svg">
<mask id="mask0_4031_30" style="mask-type:alpha" maskUnits="userSpaceOnUse" x="0" y="0" width="235" height="121">
<rect width="235" height="121" fill="#D9D9D9"/>
</mask>
<g mask="url(#mask0_4031_30)">
<path d="M231 125.5C231 110.595 228.064 95.8359 222.36 82.0654C216.656 68.295 208.296 55.7828 197.757 45.2434C187.217 34.7039 174.705 26.3436 160.935 20.6397C147.164 14.9358 132.405 12 117.5 12C102.595 12 87.8359 14.9358 74.0654 20.6397C60.295 26.3436 47.7828 34.7039 37.2434 45.2434C26.7039 55.7828 18.3436 68.295 12.6397 82.0654C6.93576 95.8359 4 110.595 4 125.5L117.5 125.5H231Z" stroke="#52B788" stroke-width="3" stroke-linecap="round" stroke-linejoin="round" stroke-dasharray="6 6"/>
</g>
<path d="M40.1641 107V94.3897H41.9475V104.118L49.4056 94.3897H51.063V107H49.2975V97.2901L41.8214 107H40.1641ZM64.0379 94.3897H65.8394V107H64.0379V94.3897ZM56.796 107H54.9946V94.3897H56.796V107ZM64.2001 101.379H56.6159V99.8121H64.2001V101.379ZM72.3483 107V95.4886L72.7987 95.957H68.0428V94.3897H78.4373V95.957H73.6814L74.1138 95.4886V107H72.3483ZM82.2661 99.8301H88.7514V101.361H82.2661V99.8301ZM82.4283 105.433H89.7783V107H80.6268V94.3897H89.5261V95.957H82.4283V105.433ZM92.6073 107V94.3897H97.5253C98.6302 94.3897 99.573 94.5638 100.354 94.9121C101.134 95.2604 101.735 95.7648 102.155 96.4254C102.575 97.0859 102.786 97.8725 102.786 98.7853C102.786 99.698 102.575 100.485 102.155 101.145C101.735 101.794 101.134 102.298 100.354 102.658C99.573 103.007 98.6302 103.181 97.5253 103.181H93.5981L94.4088 102.334V107H92.6073ZM94.4088 102.514L93.5981 101.614H97.4713C98.6242 101.614 99.4949 101.367 100.083 100.875C100.684 100.383 100.984 99.686 100.984 98.7853C100.984 97.8846 100.684 97.188 100.083 96.6956C99.4949 96.2032 98.6242 95.957 97.4713 95.957H93.5981L94.4088 95.0562V102.514ZM102.911 107L108.621 94.3897H110.405L116.134 107H114.242L109.144 95.3985H109.864L104.766 107H102.911ZM105.343 103.847L105.829 102.406H112.927L113.449 103.847H105.343ZM126.795 107L122.219 100.785L123.678 99.8842L128.849 107H126.795ZM118.31 107V94.3897H120.075V107H118.31ZM119.535 101.451V99.8662H123.624V101.451H119.535ZM123.84 100.893L122.183 100.641L126.705 94.3897H128.632L123.84 100.893ZM133.148 107V95.4886L133.598 95.957H128.842V94.3897H139.237V95.957H134.481L134.913 95.4886V107H133.148ZM141.426 107V94.3897H143.21V104.118L150.668 94.3897H152.325V107H150.56V97.2901L143.084 107H141.426ZM156.257 107V94.3897H161.679C163.048 94.3897 164.123 94.6659 164.904 95.2184C165.685 95.7708 166.075 96.5755 166.075 97.6324C166.075 98.6652 165.703 99.4578 164.958 100.01C164.213 100.551 163.235 100.821 162.022 100.821L162.346 100.281C163.751 100.281 164.826 100.563 165.571 101.127C166.327 101.68 166.705 102.49 166.705 103.559C166.705 104.64 166.309 105.487 165.516 106.099C164.736 106.7 163.571 107 162.022 107H156.257ZM158.04 105.577H161.986C162.946 105.577 163.667 105.403 164.147 105.054C164.64 104.694 164.886 104.148 164.886 103.415C164.886 102.682 164.64 102.148 164.147 101.812C163.667 101.475 162.946 101.307 161.986 101.307H158.04V105.577ZM158.04 99.9382H161.553C162.43 99.9382 163.096 99.7641 163.553 99.4158C164.021 99.0675 164.255 98.5571 164.255 97.8846C164.255 97.2 164.021 96.6836 163.553 96.3353C163.096 95.987 162.43 95.8129 161.553 95.8129H158.04V99.9382ZM178.759 94.3897H180.56V107H178.759V94.3897ZM171.517 107H169.715V94.3897H171.517V107ZM178.921 101.379H171.336V99.8121H178.921V101.379ZM190.167 107.144C189.207 107.144 188.312 106.982 187.483 106.658C186.667 106.333 185.958 105.883 185.358 105.307C184.757 104.718 184.289 104.034 183.952 103.253C183.616 102.472 183.448 101.62 183.448 100.695C183.448 99.7701 183.616 98.9174 183.952 98.1368C184.289 97.3561 184.757 96.6776 185.358 96.1011C185.958 95.5126 186.667 95.0562 187.483 94.732C188.3 94.4077 189.195 94.2456 190.167 94.2456C191.128 94.2456 192.011 94.4077 192.816 94.732C193.632 95.0442 194.341 95.4946 194.941 96.0831C195.554 96.6596 196.022 97.3381 196.347 98.1187C196.683 98.8994 196.851 99.7581 196.851 100.695C196.851 101.632 196.683 102.49 196.347 103.271C196.022 104.052 195.554 104.736 194.941 105.325C194.341 105.901 193.632 106.351 192.816 106.676C192.011 106.988 191.128 107.144 190.167 107.144ZM190.167 105.541C190.864 105.541 191.507 105.421 192.095 105.181C192.696 104.94 193.212 104.604 193.644 104.172C194.089 103.727 194.431 103.211 194.671 102.622C194.923 102.034 195.049 101.391 195.049 100.695C195.049 99.9983 194.923 99.3558 194.671 98.7673C194.431 98.1788 194.089 97.6684 193.644 97.236C193.212 96.7917 192.696 96.4494 192.095 96.2092C191.507 95.969 190.864 95.8489 190.167 95.8489C189.459 95.8489 188.804 95.969 188.204 96.2092C187.615 96.4494 187.099 96.7917 186.655 97.236C186.21 97.6684 185.862 98.1788 185.61 98.7673C185.37 99.3558 185.249 99.9983 185.249 100.695C185.249 101.391 185.37 102.034 185.61 102.622C185.862 103.211 186.21 103.727 186.655 104.172C187.099 104.604 187.615 104.94 188.204 105.181C188.804 105.421 189.459 105.541 190.167 105.541Z" fill="#151724"/>
<path d="M131 79L118 66L105 79" stroke="#151724" stroke-width="2.2597" stroke-linecap="round" stroke-linejoin="round"/>
</svg>
